<svg width="260" height="227" viewBox="0 0 260 227" fill="none" xmlns="http://www.w3.org/2000/svg">
<g clip-path="url(#clip0_24_222)">
<path d="M257.855 151.292L257.579 39.0943C257.579 38.9082 257.466 38.7346 257.29 38.6478L185.428 7.77665C185.014 7.60301 184.6 8.03711 184.8 8.43401L256.939 151.503C257.165 151.962 257.867 151.8 257.867 151.292H257.855Z" fill="#CC1D1D" stroke="#F7DAEA" stroke-miterlimit="10" stroke-linecap="round"/>
<path d="M75.526 225.896L75.25 113.699C75.25 113.512 75.137 113.339 74.9614 113.252L45.3156 97.5374L3.11137 82.3809C2.69735 82.2073 2.28334 82.6414 2.48408 83.0383L74.6227 226.107C74.8485 226.566 75.5511 226.405 75.5511 225.896H75.526Z" fill="#CC1D1D" stroke="#F7DAEA" stroke-miterlimit="10" stroke-linecap="round"/>
<path d="M75.4131 98.9266C57.736 93.1343 1.89443 69.0849 1.89443 69.0849C1.84424 69.0725 1.84424 68.9981 1.89443 68.9733L189.405 1.09155H189.442L257.804 23.9131C257.855 23.9255 257.855 23.9999 257.804 24.0247L75.5385 98.9514C75.5385 98.9514 75.4256 98.9389 75.4131 98.9389V98.9266Z" fill="#F7DAEA"/>
<path d="M75.3503 99.1001C69.0648 97.0164 62.9174 94.5606 56.7197 92.2165L38.2146 85.0351C25.8946 80.2104 13.5997 75.3236 1.32986 70.35L1.44277 70.3996C1.07894 70.3003 0.66493 69.9407 0.539472 69.5314C0.388922 69.1221 0.439105 68.7376 0.589655 68.4151C0.740205 68.0802 1.04131 67.8197 1.34241 67.6957L1.45532 67.6461L1.64351 67.5717L2.00734 67.4352L2.73499 67.1624L4.19031 66.6166L7.11349 65.5128L12.9473 63.3174L24.64 58.9888C32.4435 56.1113 40.2721 53.3082 48.1007 50.5299C63.7831 44.9858 79.5406 39.6401 95.2606 34.2076C111.006 28.8247 126.675 23.2805 142.282 17.5131C157.914 11.8325 173.471 5.9659 189.028 0.0744662L189.179 0.0124512H189.379H189.417H189.593L189.793 0.0744662C200.495 3.47289 211.209 6.85892 221.886 10.3318C232.575 13.7674 243.251 17.2526 253.928 20.7627L257.93 22.0774L258.181 22.1642L258.306 22.2014L258.369 22.2263C258.093 22.127 259.097 22.3751 259.461 23.1441C259.812 23.8386 259.686 24.5332 259.335 25.0417C258.946 25.6123 258.244 25.7983 258.444 25.7239L258.319 25.7735L258.08 25.8727L257.114 26.282L255.17 27.0882L247.404 30.3378L231.86 36.8246L200.721 49.6369C179.932 58.1082 159.119 66.505 138.142 74.5174L106.74 86.6723C101.496 88.6816 96.3019 90.8025 91.0828 92.8614L83.2793 96.0118L79.3775 97.5994L77.4329 98.3932L76.4543 98.7901L75.9651 98.9885L75.7267 99.0877L75.6012 99.1374C75.526 99.1374 75.4256 99.1374 75.3378 99.1249L75.3503 99.1001ZM75.4632 98.7529L90.8821 92.3405C96.0384 90.1328 101.232 87.987 106.364 85.7173L137.251 72.2724C157.802 63.2182 178.515 54.5485 199.253 45.9532L230.404 33.1657L246.011 26.8526L253.815 23.6898L255.759 22.896L256.738 22.4991L256.976 22.3999L257.102 22.3503C257.34 22.2635 256.688 22.4371 256.324 22.9704C255.998 23.4542 255.885 24.0867 256.211 24.7441C256.562 25.4634 257.516 25.6991 257.19 25.5875L257.127 25.5627L257.002 25.5255L256.751 25.4386L252.761 24.0867C242.122 20.4898 231.496 16.8557 220.882 13.1845C210.256 9.55037 199.667 5.82947 189.066 2.10856L189.442 2.17058H189.405L189.756 2.10856C174.036 7.54108 158.328 12.9984 142.671 18.6294C127.002 24.1983 111.407 29.9657 95.8628 35.9068C80.3059 41.7858 64.7867 47.7765 49.1922 53.5439C41.3887 56.4214 33.5852 59.2865 25.7441 62.0647L13.9886 66.2322L8.09207 68.2787L5.1438 69.2957L3.67593 69.8042L2.93573 70.0647L2.5719 70.1887L2.38371 70.2507C2.38371 70.2507 2.28334 70.2879 2.4088 70.2507C2.68481 70.1391 2.96082 69.891 3.09882 69.5934C3.23683 69.2957 3.27446 68.9484 3.14901 68.5639C3.02355 68.1794 2.63463 67.8446 2.30844 67.7577L2.42135 67.8073C14.4528 73.2647 26.5345 78.66 38.6537 83.9561C44.7134 86.6103 50.7856 89.2025 56.9079 91.7079C63.0178 94.2134 69.1903 96.6195 75.4381 98.7653L75.4632 98.7529Z" fill="#CC1D1D"/>
<path d="M75.4005 113.698V98.7528L258.469 23.9378H258.57C258.67 23.9006 258.871 23.8634 258.871 23.9875L258.658 38.8091L75.5385 113.81C75.4758 113.835 75.4005 113.773 75.4005 113.698Z" fill="#F7DAEA"/>
<path d="M75.2123 113.698C75.1747 108.712 75.2123 103.739 75.1119 98.7528V98.5667L75.2876 98.4923C90.4555 92.0427 105.485 85.2831 120.603 78.7095C135.746 72.1855 151.002 65.9592 166.383 60.0305C181.752 54.0523 197.196 48.2725 212.476 42.0958C227.77 35.9563 242.938 29.5067 258.08 22.9951L258.256 22.9207H258.482H258.582L258.193 22.9951C258.457 22.9207 258.52 22.8339 259.047 22.9083C259.197 22.9455 259.423 23.0199 259.636 23.2556C259.862 23.5037 259.925 23.8509 259.912 23.9998V24.1238V24.5951V25.5502L259.925 27.4478L259.95 31.2431L259.987 38.8338V39.6648L259.172 40.0121C244.004 46.5237 228.786 52.9236 213.543 59.274C198.312 65.6491 183.081 71.9994 167.75 78.1513C152.457 84.3653 137.088 90.4055 121.594 96.1605L98.4221 104.942L86.8799 109.444L81.1339 111.751L78.2609 112.905L76.8307 113.488L76.1156 113.773L75.7518 113.922C75.6765 113.946 75.664 113.959 75.5385 114.008C75.3001 114.033 75.1872 113.835 75.1998 113.698H75.2123ZM75.5887 113.698C75.5887 113.698 75.5887 113.624 75.4883 113.636C75.4758 113.636 75.5887 113.599 75.6263 113.574L75.9776 113.426L76.6927 113.128L78.1229 112.533L80.9834 111.342L86.6917 108.96L98.0708 104.074L120.741 94.0892C135.809 87.342 150.989 80.8552 166.257 74.5545C181.488 68.1917 196.807 62.0274 212.138 55.8879C227.456 49.7236 242.787 43.5965 258.181 37.6059L257.365 38.7966L257.616 31.2183L257.742 27.423L257.804 25.5254L257.842 24.5827V24.1114L257.867 23.9874C257.867 24.099 257.905 24.4091 258.106 24.6199C258.294 24.8308 258.482 24.8804 258.595 24.9052C258.959 24.9424 258.871 24.9052 258.984 24.8804L258.595 24.9548H258.494L258.883 24.8804C243.515 30.8462 228.171 36.8617 212.953 43.1872C197.722 49.4756 182.655 56.1608 167.5 62.66C152.369 69.1964 137.113 75.4351 121.745 81.3885C106.351 87.2924 90.8695 92.9978 75.526 99.0132L75.7016 98.7528C75.6138 103.739 75.6389 108.712 75.6012 113.698H75.5887Z" fill="#CC1D1D"/>
<path d="M1.88187 81.86L1.91951 69.4818C1.91951 69.333 2.05752 69.2213 2.18297 69.2834L75.4005 99.3731C75.4758 99.4103 75.526 99.4847 75.526 99.5715V113.24C75.526 113.388 75.388 113.5 75.25 113.438L42.5806 99.4475L2.00733 82.0585C1.93206 82.0213 1.88187 81.9468 1.88187 81.86Z" fill="#F7DAEA"/>
<path d="M0 81.8475L0.15055 70.3127V69.5934V69.5065V69.2833C0.175642 69.1593 0.200733 69.0352 0.238371 68.9112C0.388921 68.4275 0.740204 67.9562 1.31731 67.6957C1.60587 67.5717 1.9446 67.5096 2.28334 67.5469C2.44644 67.5593 2.60953 67.5965 2.76008 67.6461L2.88554 67.6957L3.04864 67.7701L4.39104 68.3406L7.07585 69.4693L12.4455 71.7391L33.9114 80.8181L55.3773 89.8971L66.1166 94.4366L71.4862 96.7063L74.171 97.8474L75.5134 98.418L75.6765 98.4924L75.7643 98.5296C75.9149 98.5916 76.078 98.7032 76.1783 98.8273C76.4042 99.0505 76.492 99.435 76.4669 99.6211V99.8071V100.526L76.354 112.074V112.793V113.153C76.354 113.252 76.3791 113.165 76.3289 113.512C76.2661 113.773 76.0905 114.021 75.8145 114.17C75.6765 114.244 75.5134 114.294 75.3378 114.281C75.1997 114.294 74.9363 114.195 74.9363 114.195L74.7732 114.12L74.4345 113.971L73.7695 113.674L71.1098 112.495L65.7778 110.151L44.4499 100.762L23.122 91.373L12.458 86.6723L7.12604 84.3281L4.46632 83.1499L3.13646 82.5669L2.47153 82.2692L2.13279 82.1204C2.01988 82.0832 1.89442 82.0088 1.90697 81.8723H0V81.8475ZM1.88188 81.8599C1.88188 81.9964 1.99479 82.0708 2.1077 82.108L2.44644 82.2444L3.12391 82.5297L4.46632 83.0878L7.15113 84.2041L12.5333 86.449L23.2976 90.9265L44.8137 99.8939L66.3298 108.861L71.712 111.106L74.3968 112.223L75.0743 112.508L75.413 112.644L75.5761 112.719C75.5761 112.719 75.4256 112.657 75.3503 112.669C75.2374 112.669 75.137 112.694 75.0492 112.743C74.8736 112.83 74.7857 112.979 74.7481 113.128C74.723 113.351 74.7481 113.153 74.7355 113.128V112.768V112.049L74.6226 100.502V99.7823V99.5963C74.6226 99.6583 74.6603 99.9187 74.7983 100.055C74.861 100.13 74.9739 100.204 75.0743 100.254L74.9865 100.216L74.8234 100.154L73.4684 99.6086L70.7585 98.5296L65.3513 96.3715L54.5242 92.0428L32.8701 83.3979L11.216 74.753L5.80872 72.5949L3.09882 71.5158L1.74387 70.9701L1.58078 70.9081C1.58078 70.9081 1.46786 70.8585 1.61841 70.9205C1.73133 70.9577 1.86933 70.9949 2.00733 71.0073C2.28334 71.0321 2.55935 70.9825 2.79772 70.8833C3.26192 70.6724 3.53793 70.3003 3.65084 69.9282C3.67593 69.829 3.70102 69.7422 3.70102 69.643C3.70102 69.5313 3.70102 69.4569 3.70102 69.5189V69.6058V70.3251L3.7763 81.8723H1.89442L1.88188 81.8599Z" fill="#CC1D1D"/>
<path d="M66.1919 105.054C61.9263 105.252 53.3575 103.106 49.2675 101.792C58.8149 105.513 66.2295 109.147 74.7356 112.458C74.7105 108.055 74.6603 104.471 74.6227 100.055C74.3843 100.03 70.4574 104.855 66.1919 105.054Z" fill="#EEB1D2"/>
<path d="M174.55 59.6586L252.535 32.6945C252.535 32.6945 251.833 37.3704 251.431 40.2603C254.028 39.2929 257.528 38.003 257.528 38.003C257.528 38.003 257.855 31.355 257.855 25.2527C250.114 28.4279 237.995 32.8185 220.631 39.9379C198.362 49.0789 174.538 59.6586 174.538 59.6586H174.55Z" fill="#EEB1D2"/>
<path d="M78.6875 83.9188C98.0814 83.9188 113.803 77.7716 113.803 70.1886C113.803 62.6057 98.0814 56.4585 78.6875 56.4585C59.2936 56.4585 43.5717 62.6057 43.5717 70.1886C43.5717 77.7716 59.2936 83.9188 78.6875 83.9188Z" fill="#EEB1D2"/>
<path d="M186.845 39.9625C206.239 39.9625 221.961 33.8153 221.961 26.2323C221.961 18.6494 206.239 12.5022 186.845 12.5022C167.451 12.5022 151.729 18.6494 151.729 26.2323C151.729 33.8153 167.451 39.9625 186.845 39.9625Z" fill="#EEB1D2"/>
<path d="M75.5385 81.5004C94.9324 81.5004 110.654 75.7919 110.654 68.7501C110.654 61.7083 94.9324 55.9998 75.5385 55.9998C56.1446 55.9998 40.4227 61.7083 40.4227 68.7501C40.4227 75.7919 56.1446 81.5004 75.5385 81.5004Z" fill="#CC1D1D"/>
<path d="M40.2972 68.7499C40.2847 67.0383 41.2382 65.5003 42.3798 64.3097C43.5341 63.0942 44.9392 62.1515 46.3694 61.2833C49.2675 59.5965 52.4291 58.4058 55.6408 57.4384C62.0894 55.5159 68.8516 54.8338 75.5385 54.9702C82.238 55.1686 88.8873 56.1485 95.3484 57.8105C98.5727 58.6539 101.759 59.6833 104.758 61.2089C106.251 61.9779 107.693 62.8833 108.961 64.0616C110.19 65.2399 111.282 66.8399 111.344 68.7623C111.407 70.6848 110.391 72.3964 109.186 73.6863C107.97 74.9762 106.527 75.9809 105.021 76.8119C102.01 78.4739 98.7985 79.6026 95.524 80.446C88.9876 82.1204 82.2505 82.8522 75.526 82.8398C68.8139 82.7653 62.0643 82.0708 55.6157 80.1111C52.404 79.1313 49.2424 77.9406 46.3443 76.2538C44.9141 75.3855 43.509 74.4429 42.3548 73.2274C41.2131 72.0243 40.2596 70.4864 40.2847 68.7747L40.2972 68.7499ZM40.5482 68.7499C40.5732 70.3747 41.4765 71.8383 42.6308 72.9422C43.8226 74.046 45.2027 74.939 46.6831 75.6212C49.6439 77.0103 52.818 77.8786 56.0297 78.5111C62.4657 79.6894 69.0021 80.2103 75.5385 80.1731C82.0623 80.1235 88.6238 79.615 94.9595 78.1638C98.1085 77.4072 101.232 76.4646 104.08 75.0507C105.498 74.3313 106.84 73.4879 107.957 72.4708C109.061 71.4414 109.902 70.1515 109.964 68.7375C110.014 67.3236 109.249 65.922 108.183 64.781C107.104 63.6399 105.761 62.6973 104.344 61.9283C101.483 60.3655 98.3343 59.336 95.1351 58.5795C91.9234 57.8353 88.6489 57.4136 85.3744 57.2027C82.1 56.9671 78.8004 56.9423 75.526 57.0291C68.977 57.2027 62.4406 57.7361 56.0046 58.9516C52.8054 59.5841 49.6188 60.4647 46.658 61.8539C45.1776 62.536 43.7975 63.4414 42.6057 64.5453C41.4515 65.6616 40.5482 67.1375 40.5356 68.7499H40.5482Z" fill="#FFFDE8"/>
<path d="M191.851 38.003C211.245 38.003 226.967 32.2945 226.967 25.2527C226.967 18.2109 211.245 12.5024 191.851 12.5024C172.457 12.5024 156.735 18.2109 156.735 25.2527C156.735 32.2945 172.457 38.003 191.851 38.003Z" fill="#CC1D1D"/>
<path d="M156.61 25.2526C156.597 23.541 157.551 22.003 158.692 20.8123C159.847 19.5968 161.252 18.6542 162.682 17.786C165.58 16.0992 168.742 14.9085 171.953 13.9411C178.402 12.0186 185.164 11.3364 191.851 11.4729C198.55 11.6713 205.2 12.6512 211.661 14.3132C214.885 15.1566 218.072 16.186 221.07 17.7116C222.563 18.4806 224.006 19.386 225.273 20.5643C226.503 21.7426 227.594 23.3426 227.657 25.265C227.72 27.1875 226.703 28.9115 225.499 30.189C224.282 31.4789 222.839 32.4836 221.334 33.3146C218.323 34.9766 215.111 36.1053 211.837 36.9487C205.3 38.6231 198.563 39.3548 191.838 39.3424C185.126 39.268 178.377 38.5735 171.928 36.6138C168.716 35.6339 165.555 34.4433 162.657 32.7564C161.227 31.8882 159.821 30.9456 158.667 29.7301C157.526 28.5394 156.572 26.989 156.597 25.2774L156.61 25.2526ZM156.861 25.2526C156.886 26.8774 157.789 28.341 158.943 29.4448C160.135 30.5487 161.515 31.4417 162.996 32.1239C165.956 33.513 169.13 34.3812 172.342 35.0138C178.778 36.1921 185.315 36.713 191.851 36.6758C198.375 36.6262 204.936 36.1177 211.272 34.6665C214.421 33.9099 217.545 32.9673 220.393 31.5534C221.81 30.834 223.153 29.9906 224.269 28.9735C225.373 27.9441 226.214 26.6542 226.277 25.2402C226.327 23.8263 225.562 22.4247 224.495 21.2837C223.416 20.1426 222.074 19.2 220.656 18.431C217.796 16.8682 214.647 15.8387 211.448 15.0821C208.236 14.338 204.961 13.9163 201.687 13.7054C198.412 13.4698 195.113 13.445 191.838 13.5318C185.29 13.7054 178.753 14.2387 172.317 15.4542C169.118 16.0868 165.931 16.9674 162.97 18.3565C161.49 19.0387 160.11 19.9441 158.918 21.048C157.764 22.1643 156.861 23.6402 156.848 25.2526H156.861Z" fill="#FFFDE8"/>
<path d="M91.1079 43.0632L135.232 65.9716" stroke="#EEB1D2" stroke-miterlimit="10" stroke-linecap="round"/>
<path d="M92.513 42.592L136.624 65.5004" stroke="#CC1D1D" stroke-miterlimit="10" stroke-linecap="round"/>
<path d="M103.576 43.8479L101.399 42.7175C99.8658 41.9212 97.9696 42.5047 97.1641 44.0208C96.3587 45.5369 96.9489 47.4114 98.4825 48.2077L100.659 49.3381C102.193 50.1345 104.089 49.551 104.895 48.0349C105.7 46.5188 105.11 44.6442 103.576 43.8479Z" fill="#FFDE8C" stroke="#CC1D1D" stroke-miterlimit="10" stroke-linecap="round"/>
<path d="M109.425 39.9502L141.354 55.9997" stroke="#EEB1D2" stroke-miterlimit="10" stroke-linecap="round"/>
<path d="M119.045 41.4929L116.868 40.3625C115.334 39.5662 113.438 40.1497 112.632 41.6658C111.827 43.1819 112.417 45.0565 113.951 45.8528L116.128 46.9832C117.661 47.7795 119.557 47.196 120.363 45.6799C121.168 44.1638 120.578 42.2892 119.045 41.4929Z" fill="#EEB1D2" stroke="#EEB1D2" stroke-miterlimit="10" stroke-linecap="round"/>
<path d="M110.792 39.9502L142.721 55.9997" stroke="#CC1D1D" stroke-miterlimit="10" stroke-linecap="round"/>
<path d="M120.642 41.4372L118.465 40.3068C116.931 39.5105 115.035 40.094 114.229 41.6101C113.424 43.1262 114.014 45.0008 115.548 45.7971L117.725 46.9275C119.258 47.7238 121.154 47.1403 121.96 45.6242C122.765 44.1081 122.175 42.2335 120.642 41.4372Z" fill="#FFDE8C" stroke="#CC1D1D" stroke-miterlimit="10" stroke-linecap="round"/>
<path d="M150.162 46.7024L147.985 45.572C146.451 44.7757 144.555 45.3592 143.75 46.8753C142.944 48.3914 143.534 50.2659 145.068 51.0622L147.245 52.1926C148.778 52.9889 150.675 52.4054 151.48 50.8893C152.286 49.3732 151.695 47.4987 150.162 46.7024Z" fill="#EEB1D2" stroke="#EEB1D2" stroke-miterlimit="10" stroke-linecap="round"/>
<path d="M118.797 32.8433L162.908 55.7516" stroke="#EEB1D2" stroke-miterlimit="10" stroke-linecap="round"/>
<path d="M120.666 32.8433L164.777 55.7516" stroke="#CC1D1D" stroke-miterlimit="10" stroke-linecap="round"/>
<path d="M152.27 45.7578L150.093 44.6274C148.56 43.8311 146.664 44.4146 145.858 45.9307C145.053 47.4468 145.643 49.3214 147.176 50.1177L149.353 51.2481C150.887 52.0444 152.783 51.4609 153.589 49.9448C154.394 48.4287 153.804 46.5541 152.27 45.7578Z" fill="#FFDE8C" stroke="#CC1D1D" stroke-miterlimit="10" stroke-linecap="round"/>
<path d="M144.696 31.75L142.519 30.6196C140.985 29.8233 139.089 30.4068 138.284 31.9229C137.478 33.439 138.068 35.3135 139.602 36.1098L141.779 37.2402C143.312 38.0366 145.209 37.4531 146.014 35.937C146.82 34.4209 146.229 32.5463 144.696 31.75Z" fill="#EEB1D2" stroke="#EEB1D2" stroke-miterlimit="10" stroke-linecap="round"/>
<path d="M135.232 29.9905L167.148 46.0276" stroke="#EEB1D2" stroke-miterlimit="10" stroke-linecap="round"/>
<path d="M136.624 29.9905L168.553 46.0276" stroke="#CC1D1D" stroke-miterlimit="10" stroke-linecap="round"/>
<path d="M145.268 30.6645L143.091 29.5341C141.558 28.7378 139.662 29.3213 138.856 30.8374C138.051 32.3535 138.641 34.2281 140.175 35.0244L142.352 36.1548C143.885 36.9511 145.781 36.3676 146.587 34.8515C147.392 33.3354 146.802 31.4608 145.268 30.6645Z" fill="#FFDE8C" stroke="#CC1D1D" stroke-miterlimit="10" stroke-linecap="round"/>
</g>
<defs>
<clipPath id="clip0_24_222">
<rect width="260" height="227" fill="white"/>
</clipPath>
</defs>
</svg>
