<svg width="253" height="105" viewBox="0 0 253 105" fill="none" xmlns="http://www.w3.org/2000/svg">
<g clip-path="url(#clip0_24_274)">
<path d="M181.336 90.141C198.037 83.6267 250.523 57.485 250.523 57.485C250.571 57.4609 250.571 57.3887 250.523 57.3767L66.661 1.05957H66.6248L2.0303 26.6473C1.98196 26.6714 1.99405 26.7436 2.0303 26.7557L181.215 90.1651C181.215 90.1651 181.324 90.141 181.336 90.141Z" fill="#F7DAEA"/>
<path d="M181.408 90.3096C187.354 87.9736 193.143 85.2884 198.968 82.6995L216.395 74.8005C227.996 69.5023 239.574 64.1319 251.127 58.6892L251.018 58.7374C251.356 58.617 251.743 58.2557 251.852 57.8463C251.973 57.449 251.912 57.0757 251.743 56.7626C251.586 56.4495 251.284 56.2087 250.982 56.1003L250.873 56.0642L250.692 56.004L250.329 55.8836L249.616 55.6548L248.19 55.1973L245.326 54.2821L239.598 52.4398L228.129 48.8395C220.479 46.4432 212.805 44.1193 205.119 41.8194C189.747 37.2317 174.327 32.8607 158.918 28.3813C143.498 23.9622 128.138 19.3744 112.826 14.582C97.502 9.86181 82.2266 4.96101 66.9632 0.0481651L66.8061 0H66.6127H66.5765H66.4073L66.2139 0.0722477C56.0867 3.91342 45.9594 7.74255 35.8684 11.6439C25.7653 15.5212 15.6623 19.4346 5.58334 23.3721L1.80072 24.8412L1.55904 24.9375L1.43817 24.9857L1.37775 25.0098C1.64362 24.9014 0.688919 25.1904 0.374695 25.949C0.0725708 26.6474 0.229675 27.3096 0.592224 27.7913C0.991028 28.3211 1.67987 28.4776 1.47443 28.4174L1.59528 28.4656L1.83698 28.5499L2.7917 28.8991L4.70113 29.5854L12.3389 32.3309L27.6143 37.8337L58.2257 48.6829C78.6615 55.8354 99.1093 62.9278 119.702 69.6348L150.531 79.8337C155.679 81.5195 160.779 83.3016 165.915 85.0356L173.589 87.6967L177.42 89.0333L179.342 89.7076L180.297 90.0447L180.78 90.2133L181.022 90.2976L181.143 90.3458C181.215 90.3458 181.312 90.3458 181.396 90.3217L181.408 90.3096ZM181.275 89.9725L166.109 84.5419C161.033 82.6634 155.933 80.8452 150.87 78.9065L120.464 67.4312C100.221 59.6887 79.8579 52.3435 59.4705 45.0464L28.847 34.2334L13.5111 28.8991L5.83711 26.238L3.9156 25.5757L2.96089 25.2385L2.71918 25.1542L2.59834 25.1181C2.35664 25.0459 2.99715 25.1904 3.37178 25.6841C3.71016 26.1296 3.85518 26.7437 3.57722 27.406C3.28719 28.1284 2.36871 28.4054 2.68292 28.2729L2.74336 28.2489L2.86421 28.2007L3.09383 28.1044L6.86435 26.5872C16.907 22.5533 26.9497 18.4954 36.9682 14.4014C46.9987 10.3314 57.0051 6.18922 67.0115 2.05906L66.649 2.13131H66.6852L66.3468 2.08314C81.7432 6.5625 97.1395 11.0539 112.487 15.7259C127.848 20.3257 143.147 25.1302 158.398 30.1032C173.662 35.0161 188.901 40.0373 204.201 44.8417C211.851 47.238 219.512 49.6101 227.186 51.91L238.716 55.3538L244.492 57.0396L247.381 57.8825L248.819 58.3039L249.544 58.5086L249.906 58.617L250.088 58.6651C250.088 58.6651 250.184 58.6892 250.063 58.6651C249.798 58.5688 249.52 58.3521 249.375 58.0631C249.23 57.7861 249.169 57.4369 249.278 57.0757C249.375 56.7024 249.737 56.3532 250.039 56.2569L249.93 56.305C238.631 62.2053 227.295 68.0453 215.911 73.789C210.219 76.6669 204.503 79.4966 198.75 82.2299C192.998 84.9753 187.185 87.6124 181.288 90.0086L181.275 89.9725Z" fill="#CC1D1D"/>
<path d="M182.109 104.446L181.336 89.9603L1.38979 26.6954H1.29311C1.19643 26.6713 0.990982 26.6352 1.00307 26.7556L1.96986 41.1208L181.976 104.566C182.037 104.59 182.109 104.53 182.097 104.446H182.109Z" fill="#F7DAEA"/>
<path d="M182.291 104.446C182.073 99.6175 181.795 94.789 181.614 89.9604V89.7798L181.432 89.7196C166.507 84.2288 151.703 78.4369 136.827 72.8377C121.926 67.2867 106.928 62.0246 91.8341 57.0396C76.752 52.0183 61.5974 47.2018 46.5757 41.9879C31.5419 36.8102 16.629 31.3314 1.72816 25.7804L1.55898 25.7202H1.34143H1.24475L1.63147 25.7804C1.37769 25.7202 1.30518 25.6479 0.797607 25.7322C0.664673 25.7683 0.447144 25.8526 0.241699 26.0935C0.0362549 26.3463 0 26.6835 0.012085 26.828V26.9484L0.0362396 27.406L0.0845947 28.3211L0.169174 30.1634L0.350464 33.848L0.700928 41.2173L0.737183 42.0241L1.54688 42.3251C16.4719 47.8761 31.4452 53.3068 46.4307 58.6892C61.404 64.0957 76.3894 69.4902 91.4474 74.668C106.481 79.918 121.575 84.9874 136.766 89.7918L159.498 97.137L170.834 100.918L176.478 102.869L179.293 103.844L180.707 104.338L181.408 104.579L181.759 104.699C181.831 104.723 181.843 104.735 181.976 104.771C182.206 104.795 182.303 104.579 182.291 104.458V104.446ZM181.928 104.458C181.928 104.458 181.928 104.386 182.025 104.386C182.037 104.386 181.928 104.35 181.88 104.338L181.529 104.217L180.828 103.964L179.426 103.459L176.611 102.447L170.991 100.424L159.8 96.2701L137.479 87.7328C122.639 81.953 107.702 76.4381 92.6921 71.1038C77.7188 65.6972 62.6608 60.4954 47.6029 55.3297C32.557 50.1279 17.487 44.9742 2.38074 39.9289L3.22672 41.0367L2.59828 33.6915L2.28406 30.0189L2.12697 28.1886L2.04236 27.2735L2.0061 26.8159V26.6955C2.0061 26.8039 1.98195 27.1049 1.78859 27.3217C1.6194 27.5264 1.43811 27.5986 1.32935 27.6227C0.978882 27.6829 1.06348 27.6347 0.954712 27.6227L1.34143 27.6829H1.43811L1.06348 27.6227C16.1577 32.6198 31.2277 37.6892 46.1889 43.0476C61.1623 48.3698 76.0027 54.0894 90.9035 59.6284C105.792 65.1915 120.79 70.4776 135.884 75.4627C150.99 80.3996 166.181 85.156 181.251 90.2133L181.07 89.9725C181.408 94.801 181.638 99.6296 181.928 104.458Z" fill="#CC1D1D"/>
<path d="M251.187 69.8638L250.51 57.8707C250.51 57.7262 250.365 57.6299 250.245 57.6901L181.36 90.5749C181.287 90.611 181.239 90.6953 181.251 90.7796L181.952 104.025C181.952 104.169 182.097 104.266 182.218 104.206L212.926 88.9854L251.078 70.0685C251.151 70.0324 251.199 69.9481 251.187 69.8638Z" fill="#F7DAEA"/>
<path d="M253 69.7674L252.263 58.581L252.214 57.8826V57.7983L252.19 57.5936C252.166 57.4732 252.142 57.3648 252.094 57.2444C251.924 56.7748 251.562 56.3413 250.994 56.1246C250.716 56.0162 250.378 55.9801 250.063 56.0283C249.906 56.0523 249.749 56.1005 249.616 56.1487L249.495 56.1968L249.338 56.2691L248.081 56.8832L245.556 58.1234L240.504 60.5919L220.322 70.4778L200.14 80.3637L190.049 85.3006L184.998 87.7691L182.472 89.0093L181.215 89.6234L181.058 89.6957L180.973 89.7318C180.828 89.8041 180.683 89.9124 180.587 90.0449C180.381 90.2737 180.321 90.647 180.345 90.8276V91.0082L180.405 91.7066L181.106 102.893L181.155 103.591L181.179 103.941C181.191 104.025 181.155 103.965 181.227 104.29C181.3 104.543 181.481 104.771 181.759 104.904C181.892 104.964 182.061 105 182.23 104.988C182.363 104.988 182.605 104.88 182.605 104.88L182.762 104.795L183.076 104.639L183.704 104.326L186.206 103.049L191.209 100.509L211.246 90.3218L231.283 80.1349L241.302 75.0414L246.305 72.5007L248.806 71.2244L250.063 70.5862L250.692 70.2731L251.006 70.1166C251.115 70.0804 251.224 69.9961 251.211 69.8637L253.024 69.7674H253ZM251.187 69.8637C251.199 69.9961 251.091 70.0684 250.982 70.1166L250.668 70.2731L250.039 70.5741L248.77 71.1882L246.244 72.4164L241.181 74.8608L231.066 79.7496L210.823 89.5271L190.581 99.3046L185.517 101.749L182.991 102.977L182.363 103.278L182.049 103.435L181.892 103.507C181.892 103.507 182.025 103.447 182.109 103.459C182.218 103.459 182.327 103.471 182.411 103.519C182.581 103.603 182.677 103.736 182.713 103.868C182.75 104.085 182.713 103.892 182.726 103.868V103.519L182.677 102.821L182.194 91.6223L182.17 90.9239V90.7433C182.17 90.8035 182.145 91.0564 182.013 91.2008C181.952 91.2731 181.855 91.3574 181.759 91.4056L181.843 91.3694L182 91.2972L183.269 90.7072L185.819 89.5271L190.919 87.155L201.107 82.4107L221.482 72.9342L241.87 63.4577L246.97 61.0856L249.52 59.9056L250.788 59.3155L250.946 59.2433C250.946 59.2433 251.054 59.1951 250.909 59.2553C250.801 59.3035 250.668 59.3396 250.547 59.3517C250.281 59.3878 250.015 59.3517 249.785 59.2674C249.326 59.0867 249.048 58.7496 248.915 58.3884C248.879 58.3041 248.855 58.2077 248.843 58.1234C248.831 58.0151 248.831 57.9428 248.831 58.003V58.0873L248.867 58.7857L249.387 69.9841L251.199 69.8878L251.187 69.8637Z" fill="#CC1D1D"/>
<path d="M190.52 95.6077C194.629 95.5836 202.775 93.067 206.63 91.5859C197.639 95.6679 190.69 99.5693 182.677 103.206C182.484 98.9311 182.339 95.4511 182.146 91.1765C182.375 91.1404 186.399 95.6197 190.52 95.5956V95.6077Z" fill="#EEB1D2"/>
<path d="M83.9547 57.0878L7.55318 34.8957C7.55318 34.8957 8.47166 39.3992 9.0034 42.1807C6.45346 41.374 3.02129 40.3023 3.02129 40.3023C3.02129 40.3023 2.36872 33.8722 2.05451 27.96C9.66808 30.6452 21.5477 34.2937 38.6117 40.3143C60.5098 48.0448 83.9547 57.0999 83.9547 57.0999V57.0878Z" fill="#EEB1D2"/>
<path d="M142.936 64.2094C142.546 56.8578 157.354 50.1032 176.01 49.1225C194.665 48.1419 210.104 53.3065 210.494 60.658C210.883 68.0096 196.075 74.7642 177.419 75.7449C158.764 76.7256 143.325 71.5609 142.936 64.2094Z" fill="#EEB1D2"/>
<path d="M36.6521 27.0824C36.2628 19.7308 51.0706 12.9762 69.7263 11.9956C88.3819 11.0149 103.821 16.1795 104.21 23.5311C104.599 30.8827 89.7915 37.6373 71.1359 38.6179C52.4803 39.5986 37.0413 34.434 36.6521 27.0824Z" fill="#EEB1D2"/>
<path d="M145.893 62.6539C145.532 55.827 160.362 49.4977 179.018 48.517C197.673 47.5364 213.09 52.2757 213.451 59.1026C213.813 65.9295 198.982 72.2589 180.327 73.2395C161.671 74.2202 146.255 69.4809 145.893 62.6539Z" fill="#CC1D1D"/>
<path d="M213.566 59.0986C213.494 57.4369 212.491 55.992 211.343 54.8962C210.171 53.7764 208.769 52.9335 207.355 52.1629C204.479 50.6697 201.373 49.6823 198.243 48.9117C191.946 47.3704 185.408 47.0573 178.979 47.5149C172.55 48.0447 166.193 49.3332 160.078 51.2718C157.021 52.2471 154.011 53.4151 151.196 55.0407C149.806 55.8595 148.464 56.8108 147.292 58.0149C146.168 59.219 145.201 60.8326 145.25 62.6869C145.298 64.5533 146.362 66.1669 147.57 67.3469C148.815 68.539 150.253 69.4421 151.74 70.1646C154.712 71.6216 157.879 72.5608 161.057 73.211C167.438 74.5115 173.952 74.8727 180.405 74.5115C186.859 74.1021 193.312 73.0786 199.415 70.863C202.448 69.7552 205.433 68.4306 208.14 66.6485C209.47 65.7334 210.775 64.746 211.826 63.5057C212.866 62.2896 213.699 60.7483 213.591 59.0866L213.566 59.0986ZM213.325 59.1107C213.385 60.676 212.588 62.1451 211.536 63.289C210.449 64.4209 209.168 65.3481 207.778 66.0946C204.998 67.5877 201.989 68.5992 198.944 69.3699C192.817 70.8268 186.556 71.6818 180.26 71.9708C173.976 72.2477 167.643 72.0912 161.48 71.0075C158.41 70.4295 155.365 69.6829 152.549 68.4547C151.147 67.8286 149.818 67.082 148.682 66.1428C147.57 65.1915 146.688 63.9994 146.567 62.6267C146.446 61.254 147.111 59.8572 148.078 58.7013C149.057 57.5453 150.301 56.5579 151.619 55.7391C154.289 54.0774 157.274 52.9215 160.308 52.0184C163.353 51.1393 166.483 50.5614 169.625 50.1881C172.767 49.7907 175.934 49.5981 179.088 49.5258C185.396 49.3572 191.705 49.5499 197.965 50.4048C201.083 50.8624 204.176 51.5487 207.101 52.7408C208.563 53.3309 209.941 54.1376 211.137 55.1371C212.298 56.1606 213.252 57.5453 213.349 59.1107H213.325Z" fill="#FFFDE8"/>
<path d="M31.7779 26.3781C31.4165 19.5511 46.2468 13.2218 64.9024 12.2411C83.5581 11.2605 98.9745 15.9998 99.336 22.8267C99.6974 29.6537 84.8671 35.983 66.2115 36.9636C47.5558 37.9443 32.1394 33.205 31.7779 26.3781Z" fill="#CC1D1D"/>
<path d="M99.4476 22.8179C99.3751 21.1562 98.372 19.7112 97.224 18.6155C96.0517 17.4956 94.6498 16.6527 93.2359 15.8821C90.3597 14.389 87.2538 13.4016 84.1238 12.6309C77.8275 11.0897 71.2895 10.7766 64.8603 11.2342C58.431 11.764 52.0743 13.0524 45.9593 14.991C42.9018 15.9664 39.8926 17.1344 37.0768 18.76C35.687 19.5788 34.3456 20.53 33.1733 21.7342C32.0494 22.9383 31.0826 24.5518 31.131 26.4062C31.1793 28.2726 32.2428 29.8861 33.4513 31.0661C34.696 32.2582 36.1341 33.1613 37.6206 33.8838C40.5935 35.3408 43.7598 36.28 46.9382 36.9303C53.3191 38.2307 59.8329 38.592 66.2863 38.2307C72.7276 37.8213 79.1931 36.7978 85.296 34.5822C88.3294 33.4744 91.3144 32.1499 94.0214 30.3678C95.3508 29.4526 96.656 28.4652 97.7074 27.225C98.7467 26.0088 99.5805 24.4675 99.4718 22.8058L99.4476 22.8179ZM99.2059 22.8299C99.2663 24.3953 98.4687 25.8643 97.4173 27.0082C96.3297 28.1281 95.0486 29.0673 93.6589 29.8139C90.8793 31.307 87.8701 32.3184 84.8247 33.0891C78.6976 34.5581 72.4376 35.401 66.1413 35.69C59.8571 35.967 53.5245 35.8104 47.3611 34.7267C44.2915 34.1487 41.2461 33.4022 38.4303 32.1739C37.0284 31.5478 35.6991 30.8012 34.5631 29.862C33.4513 28.9108 32.5691 27.7187 32.4482 26.346C32.3274 24.9733 32.992 23.5765 33.9588 22.4205C34.9377 21.2645 36.1704 20.2772 37.4997 19.4584C40.1705 17.7967 43.1556 16.6407 46.1768 15.7376C49.2222 14.8586 52.3523 14.2806 55.4944 13.9073C58.6365 13.51 61.8027 13.3173 64.9569 13.245C71.2653 13.0765 77.5737 13.2691 83.8337 14.1241C86.9517 14.5816 90.0454 15.268 92.97 16.4601C94.4323 17.0501 95.81 17.8569 97.0064 18.8563C98.1666 19.8798 99.1213 21.2645 99.218 22.8299H99.2059Z" fill="#FFFDE8"/>
<path d="M163.365 36.7739L122.107 61.2057" stroke="#EEB1D2" stroke-miterlimit="10" stroke-linecap="round"/>
<path d="M161.988 36.3887L120.741 60.8204" stroke="#CC1D1D" stroke-miterlimit="10" stroke-linecap="round"/>
<path d="M151.404 38.1481L153.44 36.9421C154.874 36.0925 156.728 36.5623 157.581 37.9914C158.433 39.4205 157.962 41.2678 156.528 42.1173L154.492 43.3233C153.057 44.1729 151.203 43.703 150.351 42.2739C149.498 40.8448 149.97 38.9976 151.404 38.1481Z" fill="#FFDE8C" stroke="#CC1D1D" stroke-miterlimit="10" stroke-linecap="round"/>
<path d="M145.588 34.6792L115.702 51.8501" stroke="#EEB1D2" stroke-miterlimit="10" stroke-linecap="round"/>
<path d="M136.411 36.6515L138.447 35.4455C139.881 34.5959 141.735 35.0657 142.588 36.4949C143.441 37.924 142.969 39.7712 141.535 40.6207L139.499 41.8267C138.064 42.6763 136.21 42.2065 135.358 40.7773C134.505 39.3482 134.977 37.501 136.411 36.6515Z" fill="#EEB1D2" stroke="#EEB1D2" stroke-miterlimit="10" stroke-linecap="round"/>
<path d="M144.271 34.7515L114.385 51.9223" stroke="#CC1D1D" stroke-miterlimit="10" stroke-linecap="round"/>
<path d="M134.881 36.6813L136.917 35.4753C138.351 34.6257 140.205 35.0955 141.058 36.5246C141.91 37.9537 141.439 39.801 140.004 40.6505L137.968 41.8565C136.534 42.7061 134.68 42.2362 133.827 40.8071C132.975 39.378 133.446 37.5308 134.881 36.6813Z" fill="#FFDE8C" stroke="#CC1D1D" stroke-miterlimit="10" stroke-linecap="round"/>
<path d="M106.746 43.2755L108.782 42.0695C110.216 41.2199 112.07 41.6898 112.923 43.1189C113.775 44.548 113.304 46.3952 111.869 47.2448L109.833 48.4507C108.399 49.3003 106.545 48.8305 105.692 47.4014C104.84 45.9723 105.311 44.125 106.746 43.2755Z" fill="#EEB1D2" stroke="#EEB1D2" stroke-miterlimit="10" stroke-linecap="round"/>
<path d="M136.21 28.2729L94.9521 52.7047" stroke="#EEB1D2" stroke-miterlimit="10" stroke-linecap="round"/>
<path d="M134.41 28.3574L93.1635 52.8012" stroke="#CC1D1D" stroke-miterlimit="10" stroke-linecap="round"/>
<path d="M104.67 42.4679L106.706 41.2619C108.141 40.4123 109.995 40.8822 110.847 42.3113C111.7 43.7404 111.228 45.5876 109.794 46.4371L107.758 47.6431C106.324 48.4927 104.47 48.0229 103.617 46.5938C102.764 45.1646 103.236 43.3174 104.67 42.4679Z" fill="#FFDE8C" stroke="#CC1D1D" stroke-miterlimit="10" stroke-linecap="round"/>
<path d="M111.238 28.5152L113.275 27.3092C114.709 26.4597 116.563 26.9295 117.415 28.3586C118.268 29.7877 117.797 31.6349 116.362 32.4845L114.326 33.6905C112.892 34.5401 111.038 34.0702 110.185 32.6411C109.333 31.212 109.804 29.3648 111.238 28.5152Z" fill="#EEB1D2" stroke="#EEB1D2" stroke-miterlimit="10" stroke-linecap="round"/>
<path d="M120.258 26.3223L90.3718 43.4931" stroke="#EEB1D2" stroke-miterlimit="10" stroke-linecap="round"/>
<path d="M118.917 26.3945L89.0183 43.5654" stroke="#CC1D1D" stroke-miterlimit="10" stroke-linecap="round"/>
<path d="M110.629 27.4855L112.665 26.2795C114.1 25.4299 115.954 25.8997 116.806 27.3288C117.659 28.7579 117.187 30.6052 115.753 31.4547L113.717 32.6607C112.283 33.5103 110.429 33.0404 109.576 31.6113C108.723 30.1822 109.195 28.335 110.629 27.4855Z" fill="#FFDE8C" stroke="#CC1D1D" stroke-miterlimit="10" stroke-linecap="round"/>
</g>
<defs>
<clipPath id="clip0_24_274">
<rect width="253" height="105" fill="white" transform="matrix(-1 0 0 1 253 0)"/>
</clipPath>
</defs>
</svg>
