<svg width="190" height="230" viewBox="0 0 190 230" fill="none" xmlns="http://www.w3.org/2000/svg">
<g clip-path="url(#clip0_24_324)">
<path d="M177.705 221.536C187.258 213.948 191.925 203.923 188.129 199.144C184.333 194.365 173.512 196.643 163.959 204.231C154.406 211.819 149.739 221.844 153.534 226.623C157.33 231.401 168.151 229.124 177.705 221.536Z" fill="#F7DAEA" stroke="#CC1D1D" stroke-miterlimit="10"/>
<path d="M175.895 219.46C185.085 212.161 189.859 202.875 186.558 198.719C183.257 194.563 173.131 197.111 163.941 204.41C154.751 211.71 149.978 220.996 153.279 225.152C156.58 229.308 166.706 226.76 175.895 219.46Z" fill="#F7DAEA" stroke="#CC1D1D" stroke-miterlimit="10"/>
<path d="M32.5801 39.23L168.51 210.36" stroke="#CC1D1D" stroke-width="7" stroke-miterlimit="10" stroke-linecap="round"/>
<path d="M28.6162 6.86868C23.2953 0.169841 13.5532 -0.948621 6.85649 4.37053C0.159812 9.68968 -0.955504 19.4322 4.36537 26.131L11.0266 34.5174C16.3475 41.2163 26.0897 42.3347 32.7863 37.0156C39.483 31.6964 40.5983 21.9539 35.2775 15.2551L28.6162 6.86868Z" fill="#F7DAEA" stroke="#CC1D1D" stroke-width="2" stroke-miterlimit="10" stroke-linecap="round"/>
<path d="M17.08 1.18994C16.7 2.76994 15.95 4.23994 15 5.55994C14.05 6.87994 12.89 8.05994 11.57 9.03994C10.26 10.0199 8.79998 10.7999 7.25998 11.3399C5.72998 11.8799 4.09998 12.1799 2.47998 12.0999C3.92998 11.3699 5.29998 10.6899 6.60998 9.92994C7.91998 9.16994 9.16998 8.33994 10.37 7.44994C11.57 6.54994 12.72 5.58994 13.82 4.54994C14.92 3.49994 15.97 2.38994 17.07 1.19994L17.08 1.18994Z" fill="#CC1D1D"/>
<path d="M22.87 2.41991C22.4 4.74991 21.24 6.93991 19.81 8.85991C18.37 10.7999 16.64 12.4599 14.81 13.9899C12.95 15.4899 10.89 16.8399 8.58997 17.6699C6.31997 18.5199 3.78997 18.8599 1.46997 18.3199C3.81997 18.0199 5.96997 17.2799 7.96997 16.2399C9.95997 15.1999 11.8 13.8899 13.55 12.4399C15.33 10.9999 17.03 9.47991 18.62 7.84991C20.2 6.20991 21.63 4.42991 22.87 2.40991V2.41991Z" fill="#CC1D1D"/>
<path d="M28.16 6.65991C27.38 9.22991 26.09 11.6399 24.51 13.8299C22.94 16.0399 21.05 18.0099 18.98 19.7599C16.88 21.4799 14.56 22.9799 11.99 23.9699C9.44999 24.9599 6.64999 25.4399 3.98999 25.0199C6.63999 24.5999 9.07999 23.7299 11.35 22.5499C13.61 21.3499 15.73 19.8899 17.7 18.2299C19.69 16.5899 21.55 14.7799 23.29 12.8599C25.03 10.9299 26.62 8.85991 28.15 6.65991H28.16Z" fill="#CC1D1D"/>
<path d="M32.5599 11.8298C31.7799 14.4498 30.3999 16.8898 28.7399 19.0898C27.0799 21.2898 25.1499 23.2798 22.9899 25.0198C20.8099 26.7298 18.3699 28.1798 15.7199 29.0698C13.0899 29.9698 10.2499 30.3598 7.53992 29.9498C12.9299 29.1298 17.6499 26.7298 21.7399 23.4598C23.7999 21.8498 25.7199 20.0098 27.5399 18.0898C29.3499 16.1598 31.0199 14.0898 32.5499 11.8298H32.5599Z" fill="#CC1D1D"/>
<path d="M36.49 17.02C35.9 19.71 34.26 22.1 32.52 24.17C30.78 26.27 28.83 28.22 26.65 29.93C24.45 31.62 22.02 33.01 19.4 33.95C16.79 34.9 13.92 35.28 11.23 34.76C13.94 34.44 16.45 33.65 18.8 32.51C21.14 31.35 23.38 29.97 25.43 28.35C27.52 26.77 29.45 24.96 31.38 23.11C33.3 21.26 35.12 19.38 36.49 17.01V17.02Z" fill="#CC1D1D"/>
<path d="M38.64 25.02C37.93 27.14 36.76 29.11 35.33 30.86C33.91 32.62 32.19 34.14 30.31 35.42C28.41 36.67 26.35 37.68 24.18 38.33C22.02 38.99 19.75 39.32 17.52 39.17C19.65 38.49 21.68 37.76 23.63 36.87C25.57 35.97 27.45 34.96 29.2 33.76C30.97 32.6 32.62 31.25 34.2 29.8C35.76 28.33 37.21 26.73 38.65 25.02H38.64Z" fill="#CC1D1D"/>
<path d="M8.41992 3.81006C9.83992 7.32006 11.5499 10.6301 13.4499 13.8401C15.3599 17.0401 17.4199 20.1601 19.5099 23.2801C21.5599 26.4201 23.6999 29.4301 26.1299 32.2401C28.5599 35.0501 31.2199 37.6701 34.0699 40.1701C30.7499 38.3501 27.6999 36.0001 24.9899 33.3101C23.6199 31.9801 22.3699 30.5201 21.1699 29.0301C19.9899 27.5201 18.9099 25.9601 17.8499 24.3901C15.7799 21.2301 13.7599 18.0101 12.0899 14.5901C10.4099 11.1801 9.03992 7.57006 8.41992 3.82006V3.81006Z" fill="#CC1D1D"/>
<path d="M8.33991 3.82983C7.16991 7.74983 6.66991 11.8498 7.43991 15.6898C8.18991 19.5398 10.5299 22.7798 13.0699 25.9298C14.3299 27.5098 15.5799 29.2198 16.7899 30.7798C17.9999 32.3698 19.3499 33.6998 21.0099 34.7198C22.6699 35.7398 24.5299 36.5098 26.4399 37.1398C28.3499 37.7898 30.3299 38.2798 32.3399 38.6998C30.2799 38.7198 28.2199 38.4898 26.1899 38.0898C24.1699 37.6698 22.1299 37.0798 20.2299 36.0798C18.2999 35.1298 16.6499 33.5698 15.3099 31.9798C13.9699 30.3498 12.7899 28.7698 11.4799 27.1698C10.2299 25.5498 8.94991 23.8798 7.91991 22.0098C6.89991 20.1498 6.13991 18.0698 5.87991 15.9498C5.33991 11.6898 6.36991 7.43983 8.30991 3.83983L8.33991 3.82983Z" fill="#CC1D1D"/>
<path d="M9.16992 3.26001C10.9399 3.74001 12.6799 4.30001 14.3599 5.12001C16.0399 5.93001 17.5999 7.14001 18.8499 8.53001C20.1399 9.90001 21.1999 11.38 22.2999 12.83L25.5199 17.24L28.6599 21.71C29.1699 22.47 29.6899 23.2 30.1799 23.99C30.6799 24.77 31.1599 25.63 31.4999 26.56C32.1699 28.42 32.2899 30.28 32.3999 32.12C32.4599 33.96 32.3999 35.81 32.1099 37.62C31.9499 35.8 31.7599 34 31.4299 32.23C31.1099 30.47 30.7499 28.68 30.0599 27.16C29.3599 25.68 28.1999 24.26 27.1099 22.8L23.8999 18.41L20.7799 13.95C19.7699 12.44 18.7399 10.94 17.6699 9.55001C16.5899 8.16001 15.3599 6.95001 13.8699 5.97001C12.3999 4.96001 10.7699 4.15001 9.16992 3.27001V3.26001Z" fill="#CC1D1D"/>
<path d="M9.5 2.87999C11.56 2.83999 13.62 2.98999 15.67 3.21999C16.69 3.34999 17.72 3.49999 18.74 3.67999C19.75 3.85999 20.79 4.05999 21.84 4.43999C22.9 4.80999 23.91 5.50999 24.67 6.26999C25.46 7.01999 26.11 7.77999 26.81 8.53999L30.9 13.16C32.23 14.71 33.58 16.33 34.62 18.27C35.62 20.21 36.2 22.33 36.39 24.45C36.77 28.69 35.83 32.97 33.78 36.54C35.06 32.64 35.47 28.54 34.84 24.65C34.49 22.72 33.93 20.83 32.96 19.18C32.02 17.52 30.73 15.98 29.37 14.45L25.41 9.79999C24.76 9.02999 24.11 8.19999 23.44 7.50999C22.77 6.80999 22.1 6.25999 21.25 5.87999C20.41 5.47999 19.43 5.23999 18.45 4.94999C17.47 4.66999 16.49 4.41999 15.5 4.17999C13.52 3.67999 11.52 3.27999 9.5 2.87999Z" fill="#CC1D1D"/>
<path d="M43.4271 46.5763L44.1735 47.516C45.3677 49.0194 45.1164 51.2112 43.613 52.4054L42.9944 52.8967C41.4909 54.0909 39.2991 53.8397 38.1049 52.3362L37.3586 51.3966C36.1644 49.8931 36.4157 47.7013 37.9191 46.5071L38.5377 46.0158C40.0411 44.8216 42.233 45.0729 43.4271 46.5763Z" fill="#CC1D1D" stroke="#CC1D1D" stroke-width="2" stroke-miterlimit="10" stroke-linecap="round"/>
<path d="M40.7225 41.2005L40.4364 40.8403C39.7357 39.9581 38.4524 39.811 37.5702 40.5117L32.6997 44.3804C31.8174 45.0811 31.6703 46.3644 32.3711 47.2466L32.6572 47.6068C33.3579 48.489 34.6412 48.6361 35.5234 47.9354L40.3939 44.0667C41.2762 43.366 41.4233 42.0827 40.7225 41.2005Z" fill="#F7DAEA" stroke="#CC1D1D" stroke-width="2" stroke-miterlimit="10" stroke-linecap="round"/>
<path d="M38.8542 36.4046L38.5681 36.0444C37.8674 35.1622 36.5841 35.0151 35.7019 35.7158L28.4588 41.469C27.5765 42.1698 27.4294 43.453 28.1302 44.3353L28.4163 44.6955C29.117 45.5777 30.4003 45.7248 31.2825 45.0241L38.5256 39.2708C39.4079 38.5701 39.555 37.2869 38.8542 36.4046Z" fill="#F7DAEA" stroke="#CC1D1D" stroke-width="2" stroke-miterlimit="10" stroke-linecap="round"/>
</g>
<defs>
<clipPath id="clip0_24_324">
<rect width="189.95" height="229.62" fill="white"/>
</clipPath>
</defs>
</svg>
