<svg width="123" height="264" viewBox="0 0 123 264" fill="none" xmlns="http://www.w3.org/2000/svg">
<g clip-path="url(#clip0_24_171)">
<path d="M28.7 179.81C33.03 163.23 28.13 159.78 27.75 146.95C27.41 135.11 36.43 126.21 39.29 126.03C49.44 125.4 41.98 142.85 45.28 147.93C45.33 148 45.27 147.89 45.31 147.96C49.57 154.2 58.3 149.95 64.14 151.47C65.85 151.92 65.47 160.34 67.89 164.64C75.4 177.97 70.72 162.28 76.76 155.32C80.99 150.45 87.79 169.92 96.15 171.79C101.24 172.93 85.91 183.95 84.11 197.21C82.99 205.46 87.94 214.98 88.25 225.58C89.56 270.53 52.28 262.96 37.74 259.16C-1.85999 248.82 -5.44 224.63 7.71 204.55C14.3 194.49 26.83 186.97 28.7 179.81Z" fill="#CC1D1D"/>
<path d="M28.56 179.77C29.63 175.65 30.37 171.42 30.32 167.17C30.3 162.9 29.17 158.76 28.42 154.56C28.05 152.46 27.76 150.33 27.65 148.19C27.56 147.12 27.59 146.05 27.6 144.97C27.62 144.43 27.7 143.9 27.75 143.36C27.79 142.82 27.88 142.29 28 141.77C28.38 139.65 29.07 137.59 30 135.64C30.92 133.69 32.06 131.85 33.42 130.17C33.76 129.75 34.1 129.33 34.48 128.94C34.84 128.54 35.23 128.15 35.63 127.79C36.43 127.06 37.29 126.37 38.35 125.9C38.59 125.76 38.93 125.72 39.22 125.65C39.51 125.62 39.78 125.63 40.06 125.63C40.62 125.65 41.19 125.72 41.75 125.89C42.88 126.21 43.82 127.1 44.35 128.11C44.9 129.13 45.12 130.25 45.24 131.33C45.36 132.42 45.37 133.51 45.35 134.59C45.3 136.75 45.09 138.88 44.99 140.99C44.94 142.05 44.91 143.1 44.96 144.13C45.01 145.16 45.15 146.19 45.52 147.05C45.61 147.25 45.74 147.49 45.84 147.61L46.31 148.18C46.6 148.59 47 148.87 47.36 149.2C48.15 149.77 49.03 150.22 50.01 150.43C51.95 150.93 54.06 150.8 56.16 150.65C58.27 150.49 60.43 150.22 62.68 150.43C63.25 150.46 63.79 150.6 64.39 150.72C65 150.93 65.23 151.34 65.4 151.63C65.57 151.94 65.66 152.22 65.76 152.51C66.09 153.63 66.25 154.69 66.43 155.75C66.77 157.86 67.08 159.95 67.68 161.91C67.98 162.91 68.34 163.77 68.89 164.66C69.41 165.58 69.96 166.48 70.54 167.33C70.83 167.75 71.13 168.17 71.44 168.51C71.59 168.69 71.75 168.83 71.87 168.92C71.91 168.94 71.99 168.99 71.91 168.95C71.89 168.95 71.87 168.96 71.8 168.95C71.74 168.95 71.68 169.02 71.67 169C71.65 169 71.63 169.04 71.63 169.04C71.63 169.02 71.65 169 71.66 168.98C71.69 168.96 71.72 168.83 71.76 168.76C71.82 168.56 71.89 168.34 71.93 168.1C72.03 167.62 72.11 167.1 72.18 166.58C72.47 164.49 72.75 162.31 73.35 160.17C73.65 159.1 74.03 158.04 74.55 157.02C74.82 156.51 75.1 156.02 75.44 155.54C75.79 155.07 76.1 154.62 76.69 154.13C77.27 153.65 78.24 153.47 78.96 153.67C79.69 153.85 80.25 154.21 80.72 154.58C81.67 155.33 82.4 156.16 83.11 157.01C84.5 158.7 85.73 160.45 87 162.16C88.26 163.86 89.55 165.53 90.96 167.03C92.38 168.5 93.93 169.9 95.68 170.53C95.9 170.61 96.11 170.66 96.33 170.72L96.83 170.87C97.01 170.91 97.23 171.04 97.43 171.18C97.63 171.28 97.83 171.56 97.99 171.79C98.11 172.03 98.22 172.34 98.24 172.58C98.28 173.08 98.18 173.46 98.08 173.8C97.62 175.07 96.98 175.94 96.36 176.85C95.1 178.63 93.79 180.3 92.55 182.02C90.08 185.43 87.81 188.99 86.42 192.85C85.75 194.77 85.26 196.76 85.18 198.75C85.09 200.75 85.32 202.8 85.69 204.85C86.45 208.95 87.68 213.05 88.54 217.3C88.97 219.43 89.31 221.59 89.49 223.78L89.59 225.43L89.61 227.06C89.61 228.15 89.67 229.23 89.6 230.32C89.5 234.67 88.93 239.05 87.68 243.3C86.42 247.54 84.28 251.63 81.2 254.98C79.61 256.59 77.86 258.07 75.91 259.23C73.96 260.37 71.89 261.32 69.75 261.97C65.46 263.29 61 263.74 56.62 263.64C52.23 263.54 47.9 262.94 43.65 262.07C39.41 261.19 35.24 260.09 31.12 258.72C27.02 257.31 22.99 255.63 19.17 253.52C15.34 251.43 11.73 248.86 8.61 245.72C7.05 244.16 5.64 242.44 4.45 240.56C3.25 238.7 2.23 236.7 1.52 234.6C0.800003 232.5 0.310003 230.33 0.110003 228.13C-0.079997 225.93 -0.00999698 223.72 0.280003 221.55C0.880003 217.21 2.34 213.05 4.35 209.23C6.32 205.39 8.88 201.86 11.81 198.72C14.73 195.57 17.91 192.72 20.99 189.77C22.52 188.29 24.03 186.78 25.4 185.16C26.74 183.53 27.99 181.76 28.57 179.74L28.56 179.77ZM28.85 179.85C28.27 181.96 27.02 183.77 25.68 185.44C24.31 187.1 22.81 188.63 21.3 190.13C18.26 193.13 15.17 196.07 12.35 199.25C9.54 202.42 7.19 205.97 5.38 209.78C3.55 213.57 2.29 217.63 1.86 221.77C1.66 223.84 1.67 225.92 1.92 227.96C2.18 230.01 2.7 232 3.44 233.92C4.16 235.84 5.16 237.64 6.33 239.32C6.89 240.18 7.56 240.96 8.21 241.76C8.55 242.15 8.91 242.51 9.25 242.89C9.59 243.28 9.95 243.64 10.33 243.99C13.29 246.86 16.75 249.22 20.44 251.14C24.13 253.08 28.04 254.62 32.03 255.9C36.01 257.21 40.11 258.27 44.23 259.1C48.34 259.92 52.5 260.47 56.65 260.55C60.79 260.63 64.93 260.26 68.81 259.08C70.76 258.51 72.59 257.66 74.33 256.67C76.06 255.66 77.6 254.37 79.01 252.96C81.74 250.04 83.72 246.41 84.94 242.5C86.14 238.58 86.74 234.43 86.88 230.25C86.96 229.21 86.91 228.16 86.93 227.11V225.54L86.85 224C86.7 221.94 86.4 219.88 86.01 217.82C85.22 213.7 84.04 209.59 83.29 205.29C82.92 203.14 82.68 200.92 82.8 198.66C82.92 196.38 83.48 194.18 84.23 192.09C85.79 187.91 88.2 184.22 90.76 180.76C92.03 179.03 93.38 177.35 94.59 175.66C95.18 174.83 95.79 173.93 96.05 173.19C96.11 173.02 96.12 172.87 96.12 172.84C96.1 172.82 96.18 172.92 96.16 172.9C96.14 172.9 96.15 172.87 96.06 172.85C95.97 172.83 95.99 172.81 95.8 172.77C95.51 172.68 95.2 172.61 94.92 172.5C92.63 171.62 90.97 170.02 89.45 168.43C87.96 166.81 86.65 165.08 85.38 163.34C84.11 161.61 82.9 159.85 81.6 158.24C80.95 157.44 80.26 156.66 79.54 156.09C79.18 155.8 78.8 155.58 78.5 155.51C78.19 155.44 78.01 155.46 77.74 155.65C77.5 155.83 77.17 156.24 76.89 156.63C76.61 157.03 76.36 157.45 76.12 157.89C75.67 158.77 75.31 159.72 75.02 160.71C74.44 162.68 74.15 164.75 73.84 166.87C73.76 167.4 73.68 167.94 73.55 168.5C73.49 168.78 73.41 169.07 73.31 169.38C73.23 169.55 73.2 169.69 73.08 169.88L72.89 170.16C72.81 170.26 72.67 170.37 72.55 170.46C72.31 170.64 71.81 170.74 71.56 170.65C71.21 170.59 71.08 170.47 70.88 170.36C70.57 170.13 70.34 169.9 70.14 169.68C69.74 169.22 69.42 168.77 69.11 168.31C68.5 167.39 67.95 166.46 67.42 165.52C66.86 164.59 66.39 163.47 66.09 162.42C65.46 160.29 65.17 158.14 64.85 156.04C64.69 155 64.53 153.94 64.26 153.01C64.19 152.79 64.11 152.56 64.02 152.41C63.94 152.24 63.83 152.19 63.92 152.23C63.47 152.15 62.98 152 62.48 151.98C60.48 151.75 58.36 151.97 56.22 152.09C54.08 152.21 51.86 152.33 49.65 151.73C48.55 151.47 47.49 150.92 46.57 150.23C46.14 149.84 45.68 149.49 45.35 149.01L44.82 148.34C44.68 148.15 44.51 147.83 44.4 147.57C43.95 146.46 43.85 145.33 43.8 144.23C43.76 143.13 43.82 142.05 43.89 140.98C44.04 138.83 44.28 136.72 44.36 134.61C44.4 133.56 44.41 132.51 44.31 131.47C44.21 130.44 44.02 129.42 43.56 128.55C43.12 127.68 42.4 126.98 41.46 126.69C41 126.54 40.5 126.46 40 126.44C39.75 126.44 39.49 126.43 39.25 126.44C39.03 126.51 38.82 126.5 38.59 126.63C37.68 127 36.83 127.65 36.05 128.34C35.65 128.68 35.28 129.04 34.92 129.43C34.54 129.8 34.21 130.2 33.87 130.6C32.52 132.22 31.38 134.01 30.45 135.9C29.51 137.79 28.81 139.8 28.41 141.88C28.29 142.4 28.19 142.91 28.15 143.44C28.1 143.96 28 144.49 27.98 145.02C27.95 146.08 27.91 147.13 27.98 148.2C28.07 150.32 28.3 152.44 28.69 154.54C29.43 158.72 30.57 162.89 30.6 167.2C30.65 171.49 29.91 175.75 28.83 179.88L28.85 179.85Z" fill="#F7DAEA"/>
<path d="M51.7053 219.112L39.2913 215.872C37.2232 215.332 35.1091 216.571 34.5693 218.639L33.4226 223.031C32.8827 225.099 34.1216 227.214 36.1896 227.753L48.6036 230.994C50.6717 231.534 52.7858 230.295 53.3256 228.227L54.4723 223.834C55.0122 221.766 53.7733 219.652 51.7053 219.112Z" fill="#B51616"/>
<path d="M54.2271 217.753L41.8131 214.512C39.745 213.972 37.6309 215.211 37.0911 217.279L35.9444 221.672C35.4045 223.74 36.6434 225.854 38.7114 226.394L51.1254 229.635C53.1935 230.174 55.3076 228.936 55.8474 226.867L56.9941 222.475C57.534 220.407 56.2951 218.293 54.2271 217.753Z" fill="#F7DAEA" stroke="#85A5F2" stroke-miterlimit="10"/>
<path d="M55.5643 208.182L41.5635 204.527C40.7459 204.313 39.9101 204.803 39.6966 205.621L39.1056 207.885C38.8922 208.702 39.382 209.538 40.1996 209.752L54.2004 213.407C55.018 213.62 55.8538 213.13 56.0672 212.313L56.6583 210.048C56.8717 209.231 56.3819 208.395 55.5643 208.182Z" fill="#B51616"/>
<path d="M57.2073 207.825L43.2064 204.17C42.3888 203.957 41.553 204.446 41.3396 205.264L40.885 207.006C40.6715 207.823 41.1613 208.659 41.9789 208.873L55.9798 212.527C56.7974 212.741 57.6332 212.251 57.8466 211.433L58.3012 209.692C58.5147 208.874 58.0249 208.038 57.2073 207.825Z" fill="#F7DAEA" stroke="#85A5F2" stroke-miterlimit="10"/>
<path d="M59.7809 193.28L45.78 189.626C44.9624 189.412 44.1266 189.902 43.9132 190.72L43.3222 192.984C43.1087 193.801 43.5985 194.637 44.4161 194.851L58.417 198.505C59.2346 198.719 60.0704 198.229 60.2838 197.411L60.8748 195.147C61.0882 194.33 60.5985 193.494 59.7809 193.28Z" fill="#B51616"/>
<path d="M61.1777 192.62L47.1769 188.966C46.3593 188.752 45.5235 189.242 45.31 190.059L44.8554 191.801C44.642 192.619 45.1317 193.455 45.9493 193.668L59.9502 197.323C60.7678 197.536 61.6036 197.046 61.817 196.229L62.2717 194.487C62.4851 193.67 61.9953 192.834 61.1777 192.62Z" fill="#F7DAEA" stroke="#85A5F2" stroke-miterlimit="10"/>
<path d="M64.3983 176.909L50.3974 173.254C49.5798 173.04 48.744 173.53 48.5306 174.348L47.9396 176.612C47.7261 177.43 48.2159 178.265 49.0335 178.479L63.0344 182.134C63.852 182.347 64.6878 181.857 64.9012 181.04L65.4922 178.775C65.7057 177.958 65.2159 177.122 64.3983 176.909Z" fill="#B51616"/>
<path d="M66.0027 176.464L52.0019 172.81C51.1843 172.596 50.3485 173.086 50.1351 173.903L49.6804 175.645C49.467 176.463 49.9568 177.299 50.7744 177.512L64.7752 181.167C65.5928 181.38 66.4286 180.89 66.642 180.073L67.0967 178.331C67.3101 177.514 66.8203 176.678 66.0027 176.464Z" fill="#F7DAEA" stroke="#85A5F2" stroke-miterlimit="10"/>
<path d="M80.8112 233.173C81.4362 230.779 80.054 228.345 77.7241 227.737C75.3943 227.128 72.9989 228.576 72.374 230.97C71.749 233.364 73.1312 235.798 75.4611 236.406C77.791 237.014 80.1863 235.567 80.8112 233.173Z" fill="#B51616"/>
<path d="M79.8386 232.799C80.2487 231.228 79.3422 229.631 77.8139 229.232C76.2856 228.833 74.7141 229.783 74.304 231.354C73.8939 232.925 74.8004 234.522 76.3287 234.921C77.8571 235.32 79.4285 234.37 79.8386 232.799Z" fill="#F7DAEA" stroke="#F7DAEA" stroke-miterlimit="10"/>
<path d="M75.0081 224.399C75.633 222.005 74.2509 219.571 71.921 218.963C69.5911 218.355 67.1958 219.803 66.5708 222.197C65.9459 224.591 67.328 227.025 69.6579 227.633C71.9878 228.241 74.3832 226.793 75.0081 224.399Z" fill="#B51616"/>
<path d="M74.322 223.384C74.7321 221.813 73.8256 220.216 72.2973 219.817C70.769 219.418 69.1975 220.368 68.7874 221.939C68.3773 223.51 69.2838 225.107 70.8121 225.506C72.3405 225.905 73.9119 224.955 74.322 223.384Z" fill="#F7DAEA" stroke="#F7DAEA" stroke-miterlimit="10"/>
<path d="M67.7445 216.07C68.3694 213.676 66.9873 211.242 64.6574 210.634C62.3275 210.026 59.9322 211.473 59.3072 213.867C58.6823 216.261 60.0644 218.695 62.3943 219.303C64.7242 219.912 67.1196 218.464 67.7445 216.07Z" fill="#B51616"/>
<path d="M66.4155 215.251C66.8256 213.68 65.9191 212.083 64.3908 211.684C62.8625 211.285 61.2911 212.235 60.881 213.806C60.4709 215.377 61.3773 216.974 62.9057 217.373C64.434 217.772 66.0054 216.822 66.4155 215.251Z" fill="#F7DAEA" stroke="#F7DAEA" stroke-miterlimit="10"/>
<path d="M51.54 168.49L85.94 45.79L98.25 48.71L67.37 172.63L51.54 168.49Z" fill="#F7DAEA" stroke="#CC1D1D" stroke-miterlimit="10"/>
<path d="M84.25 35.07C92.02 24.84 99.78 15.12 107.3 5.21004C108.26 3.94004 109.25 2.65004 110.57 1.75004C113.88 -0.489964 118.99 0.690036 120.99 4.15004C122.99 7.61004 121.46 12.63 117.86 14.38C115.84 15.36 113.15 15.62 112.15 17.63C111.54 18.87 111.84 20.34 112.07 21.7C113.08 27.63 112.77 34.38 110.63 40C107.9 39.37 105.28 40 102.51 41.63C100.09 43.05 99.3 46.12 98.22 48.71C94.33 47.7 89.97 46.71 85.91 45.79C86.98 42.21 86.08 38.11 84.23 35.07H84.25Z" fill="#CC1D1D"/>
<path d="M84.15 35.06L98.52 15.97L105.76 6.36002C107.01 4.79002 108.05 3.06002 109.71 1.69002C111.38 0.29002 113.68 -0.22998 115.79 0.10002C117.9 0.41002 119.96 1.50002 121.25 3.31002C122.55 5.12002 122.86 7.48002 122.37 9.58002C121.89 11.69 120.62 13.67 118.68 14.82C117.71 15.4 116.71 15.69 115.8 16.04C114.89 16.38 114.03 16.74 113.47 17.28C112.91 17.82 112.66 18.5 112.68 19.35C112.68 20.2 112.92 21.15 113.08 22.17C113.42 24.18 113.59 26.22 113.62 28.27C113.65 32.35 113.11 36.49 111.62 40.37L111.3 41.22L110.43 41.01C109.2 40.72 107.93 40.72 106.69 41C105.45 41.28 104.23 41.81 103.06 42.46C102.04 43.01 101.28 44.02 100.68 45.2C100.07 46.38 99.61 47.7 99.03 49.03L98.74 49.69L98.05 49.52C93.97 48.5 89.9 47.4 85.83 46.31L85.27 46.16L85.44 45.64C85.99 43.96 86.11 42.13 85.88 40.33C85.76 39.43 85.56 38.54 85.27 37.66C84.98 36.76 84.65 35.99 84.17 35.07L84.15 35.06ZM84.35 35.07C84.84 35.73 85.32 36.64 85.68 37.49C86.04 38.36 86.33 39.27 86.53 40.2C86.93 42.06 86.96 44.04 86.44 45.93L86.05 45.26C90.18 46.12 94.33 46.96 98.45 47.89L97.47 48.38C97.98 47.11 98.4 45.74 99.04 44.39C99.67 43.06 100.6 41.64 102.06 40.77C103.32 40 104.71 39.36 106.22 39.01C107.72 38.65 109.35 38.63 110.87 38.99L109.68 39.63C111 36.03 111.63 32.15 111.66 28.27C111.68 26.33 111.56 24.38 111.28 22.45C111.16 21.5 110.92 20.5 110.92 19.35C110.92 18.78 111.01 18.17 111.24 17.58C111.48 17 111.85 16.46 112.31 16.05C113.23 15.23 114.29 14.87 115.24 14.53C116.2 14.2 117.13 13.92 117.88 13.48C119.41 12.62 120.51 11 120.94 9.25002C121.38 7.49002 121.15 5.55002 120.13 4.08002C119.12 2.60002 117.4 1.62002 115.59 1.32002C113.77 1.01002 111.84 1.41002 110.41 2.57002C108.95 3.72002 107.84 5.43002 106.59 6.96002L99.21 16.29L84.34 35.08L84.35 35.07Z" fill="#F7DAEA"/>
<path d="M89.23 38.0101C90.804 38.0101 92.08 36.7341 92.08 35.1601C92.08 33.586 90.804 32.3101 89.23 32.3101C87.656 32.3101 86.38 33.586 86.38 35.1601C86.38 36.7341 87.656 38.0101 89.23 38.0101Z" fill="#B51616"/>
<path d="M89.23 36.3101C90.1192 36.3101 90.84 35.5893 90.84 34.7001C90.84 33.8109 90.1192 33.0901 89.23 33.0901C88.3408 33.0901 87.62 33.8109 87.62 34.7001C87.62 35.5893 88.3408 36.3101 89.23 36.3101Z" fill="#F7DAEA" stroke="#F7DAEA" stroke-miterlimit="10"/>
<path d="M93.53 32.97C95.104 32.97 96.38 31.694 96.38 30.12C96.38 28.546 95.104 27.27 93.53 27.27C91.956 27.27 90.68 28.546 90.68 30.12C90.68 31.694 91.956 32.97 93.53 32.97Z" fill="#B51616"/>
<path d="M93.72 31.0301C94.6092 31.0301 95.33 30.3092 95.33 29.4201C95.33 28.5309 94.6092 27.8101 93.72 27.8101C92.8308 27.8101 92.11 28.5309 92.11 29.4201C92.11 30.3092 92.8308 31.0301 93.72 31.0301Z" fill="#F7DAEA" stroke="#F7DAEA" stroke-miterlimit="10"/>
<path d="M97.18 27.16C98.754 27.16 100.03 25.884 100.03 24.31C100.03 22.7359 98.754 21.46 97.18 21.46C95.606 21.46 94.33 22.7359 94.33 24.31C94.33 25.884 95.606 27.16 97.18 27.16Z" fill="#B51616"/>
<path d="M97.8 25.3001C98.6892 25.3001 99.41 24.5793 99.41 23.6901C99.41 22.8009 98.6892 22.0801 97.8 22.0801C96.9108 22.0801 96.19 22.8009 96.19 23.6901C96.19 24.5793 96.9108 25.3001 97.8 25.3001Z" fill="#F7DAEA" stroke="#F7DAEA" stroke-miterlimit="10"/>
<path d="M101.85 21.91C103.424 21.91 104.7 20.634 104.7 19.06C104.7 17.4859 103.424 16.21 101.85 16.21C100.276 16.21 99 17.4859 99 19.06C99 20.634 100.276 21.91 101.85 21.91Z" fill="#B51616"/>
<path d="M101.85 19.8599C102.739 19.8599 103.46 19.1391 103.46 18.2499C103.46 17.3607 102.739 16.6399 101.85 16.6399C100.961 16.6399 100.24 17.3607 100.24 18.2499C100.24 19.1391 100.961 19.8599 101.85 19.8599Z" fill="#F7DAEA" stroke="#F7DAEA" stroke-miterlimit="10"/>
<path d="M105.88 16.8301C107.454 16.8301 108.73 15.5541 108.73 13.9801C108.73 12.4061 107.454 11.1301 105.88 11.1301C104.306 11.1301 103.03 12.4061 103.03 13.9801C103.03 15.5541 104.306 16.8301 105.88 16.8301Z" fill="#B51616"/>
<path d="M105.88 14.6201C106.769 14.6201 107.49 13.8993 107.49 13.0101C107.49 12.121 106.769 11.4001 105.88 11.4001C104.991 11.4001 104.27 12.121 104.27 13.0101C104.27 13.8993 104.991 14.6201 105.88 14.6201Z" fill="#F7DAEA" stroke="#F7DAEA" stroke-miterlimit="10"/>
<path d="M109.64 11.8201C111.214 11.8201 112.49 10.5441 112.49 8.97012C112.49 7.39611 111.214 6.12012 109.64 6.12012C108.066 6.12012 106.79 7.39611 106.79 8.97012C106.79 10.5441 108.066 11.8201 109.64 11.8201Z" fill="#B51616"/>
<path d="M109.66 9.31009C110.549 9.31009 111.27 8.58927 111.27 7.70009C111.27 6.81091 110.549 6.09009 109.66 6.09009C108.771 6.09009 108.05 6.81091 108.05 7.70009C108.05 8.58927 108.771 9.31009 109.66 9.31009Z" fill="#F7DAEA" stroke="#F7DAEA" stroke-miterlimit="10"/>
</g>
<defs>
<clipPath id="clip0_24_171">
<rect width="122.59" height="263.68" fill="white"/>
</clipPath>
</defs>
</svg>
