<svg width="113" height="263" viewBox="0 0 113 263" fill="none" xmlns="http://www.w3.org/2000/svg">
<g clip-path="url(#clip0_24_367)">
<path d="M66.9125 98.1708C75.0316 95.0802 79.4137 86.7962 76.7003 79.6682C73.987 72.5401 65.2055 69.2671 57.0864 72.3578C48.9673 75.4484 44.5851 83.7323 47.2985 90.8604C50.0119 97.9884 58.7934 101.261 66.9125 98.1708Z" fill="#CC1D1D" stroke="#CC1D1D" stroke-width="2.28" stroke-miterlimit="10"/>
<path d="M56.67 22.22L76.16 82.55" stroke="#CC1D1D" stroke-width="4.55" stroke-miterlimit="10"/>
<path d="M51.2401 4.40003C51.1701 3.76003 51.18 3.03003 51.64 2.59003C52.51 1.77003 53.88 2.72003 54.67 3.62003C56.1 5.25003 57.53 6.89003 58.96 8.52003C60.95 10.8 62.9901 13.11 65.5501 14.72C67.5101 15.96 69.7301 16.74 71.7601 17.86C74.6101 19.42 77.07 21.59 79.42 23.83C81.63 25.93 83.81 28.16 85.2 30.88C88.56 37.45 86.6901 45.38 87.6101 52.71C88.0401 56.13 89.1001 59.48 90.7301 62.52C85.8101 57.85 84.0801 50.84 82.5401 44.24C81 37.64 79.1901 30.63 74.18 26.05C73.48 25.41 72.71 24.82 71.81 24.54C70.31 24.06 68.6901 24.5 67.18 24.96C65.05 25.62 62.9501 26.34 60.8601 27.13C60.22 27.37 59.51 27.62 58.87 27.36C58.33 27.14 57.9901 26.59 57.7201 26.07C56.5001 23.69 51.8 9.93003 51.21 4.39003L51.2401 4.40003Z" fill="#CC1D1D" stroke="#CC1D1D" stroke-width="4.55" stroke-miterlimit="10"/>
<path d="M23.7324 237.589C26.5857 232.906 24.0772 226.172 18.1297 222.548C12.1821 218.925 5.04765 219.785 2.19443 224.468C-0.658803 229.152 1.84965 235.886 7.7972 239.509C13.7448 243.132 20.8792 242.273 23.7324 237.589Z" fill="#CC1D1D" stroke="#CC1D1D" stroke-width="2.03" stroke-miterlimit="10"/>
<path d="M71.4348 257.624C74.2881 252.941 71.7796 246.207 65.832 242.583C59.8845 238.96 52.75 239.82 49.8968 244.503C47.0436 249.187 49.552 255.921 55.4996 259.544C61.4472 263.167 68.5816 262.308 71.4348 257.624Z" fill="#CC1D1D" stroke="#CC1D1D" stroke-width="2.03" stroke-miterlimit="10"/>
<path d="M50.74 189.03L58.89 175.66L110.74 192.95L103 205.66L50.74 189.03Z" fill="#CC1D1D" stroke="#CC1D1D" stroke-width="2.03" stroke-miterlimit="10"/>
<path d="M102.47 204.47L70.46 257.03" stroke="#CC1D1D" stroke-width="4.06" stroke-miterlimit="10"/>
<path d="M55.81 182.75L23.79 235.3" stroke="#CC1D1D" stroke-width="4.06" stroke-miterlimit="10"/>
</g>
<defs>
<clipPath id="clip0_24_367">
<rect width="112.27" height="262.8" fill="white"/>
</clipPath>
</defs>
</svg>
